<svg xmlns="http://www.w3.org/2000/svg" version="1.1" xmlns:xlink="http://www.w3.org/1999/xlink" xmlns:svgjs="http://svgjs.dev/svgjs" width="500" height="500"><svg viewBox="0 0 500 500" xmlns="http://www.w3.org/2000/svg"><defs></defs><rect x="18.256" y="4.754" width="463.488" height="490.491" rx="89.437" ry="89.437" style="stroke: rgb(0, 0, 0); fill: rgb(255, 255, 255); stroke-width: 3px;"></rect><path d="M 263.238 121.116 L 329.4 121.116 L 329.4 480.687 L 263.238 480.687 L 263.238 121.116 Z" style="fill: rgb(2, 61, 107);"></path><path d="M 355.288 121.116 L 421.449 121.116 L 421.449 480.687 L 355.288 480.687 L 355.288 121.116 Z" style="fill: rgb(2, 61, 107);"></path><path d="M 170.601 216.042 L 236.762 216.042 L 236.762 480.687 L 170.601 480.687 L 170.601 216.042 Z" style="fill: rgb(2, 61, 107);"></path><path d="M 78.551 175.77 L 144.713 175.77 L 144.713 480.687 L 78.551 480.687 L 78.551 175.77 Z" style="fill: rgb(2, 61, 107);"></path><path d="M 108.462 126.281 C 116.511 126.281 123.996 122.26 128.598 116.507 L 175.774 136.643 C 175.774 137.795 175.187 138.939 175.187 140.106 C 175.187 154.489 186.693 165.996 201.076 165.996 C 215.459 165.996 226.965 154.489 226.965 140.106 C 226.965 135.499 225.821 131.477 223.502 127.455 L 283.91 67.635 C 287.936 69.925 291.958 71.092 297.149 71.092 C 309.241 71.092 319.015 63.05 321.892 52.1 L 364.455 52.1 C 367.33 63.026 377.11 71.092 389.197 71.092 C 403.581 71.092 415.086 59.586 415.086 45.204 C 415.086 30.821 403.581 19.313 389.197 19.313 C 377.11 19.313 367.33 27.363 364.455 38.306 L 321.892 38.306 C 317.894 28.485 308.112 20.442 296.026 20.442 C 281.644 20.442 270.136 31.948 270.136 46.331 C 270.136 50.933 271.282 54.961 273.594 58.981 L 213.75 118.246 C 209.729 115.949 205.707 114.782 201.099 114.782 C 193.056 114.782 185.572 118.804 180.964 124.556 L 133.794 104.421 C 133.794 103.275 134.38 102.131 134.38 100.963 C 134.38 86.58 122.875 75.073 108.492 75.073 C 94.108 75.073 82.602 86.58 82.602 100.963 C 82.579 114.782 94.667 126.287 108.468 126.287 L 108.462 126.281 Z M 388.656 33.668 C 395.561 33.668 401.314 39.421 401.314 46.326 C 401.314 53.223 395.561 58.977 388.656 58.977 C 381.759 58.977 376.006 53.223 376.006 46.326 C 375.983 39.421 381.736 33.668 388.656 33.668 Z M 296.02 33.668 C 302.924 33.668 308.677 39.421 308.677 46.326 C 308.677 53.223 302.924 58.977 296.02 58.977 C 289.121 58.977 283.369 53.223 283.369 46.326 C 283.933 39.421 289.121 33.668 296.02 33.668 Z M 200.506 128.009 C 207.411 128.009 213.163 133.761 213.163 140.664 C 213.163 147.563 207.411 153.316 200.506 153.316 C 193.609 153.316 187.855 147.563 187.855 140.664 C 188.442 133.761 194.195 128.009 200.506 128.009 Z M 108.457 88.323 C 115.361 88.323 121.113 94.077 121.113 100.975 C 121.113 107.871 115.361 113.626 108.457 113.626 C 101.559 113.626 95.807 107.871 95.807 100.975 C 96.392 93.488 101.559 88.323 108.457 88.323 Z" style="fill: rgb(2, 61, 107);"></path></svg><style>@media (prefers-color-scheme: light) { :root { filter: none; } }
@media (prefers-color-scheme: dark) { :root { filter: none; } }
</style></svg>